# xmcd
#
# Track frame offsets:
#  150
#  16930
#  32416
#  48318
#  62148
#  74721
#  85313
#  98715
#  117372
#  132196
#  151577
#  166111
#  180909
#  198340
#  214697
#  226076
#  242019
#  256687
#  272197
#  286417
#
# Disc length: 3989 seconds
#
# Revision: 0
# Processed by: cddbd v1.5.2PL0 Copyright (c) Steve Scherf et al.
# Submitted via: AltoMP3_Maker 3.0
#
DISCID=050f9314
DTITLE=Various Artist - Afrikaans se 60 grootste treffers vol 3 cd1
DYEAR=1900
DGENRE=
TTITLE0=Jy praat nog steeds my taal
TTITLE1=Loslappie
TTITLE2=My hart is aan die brand
TTITLE3=Leeuloop
TTITLE4=Sterredank
TTITLE5=Kinders van die wind
TTITLE6=Glimlag
TTITLE7=Op die vlerke van 'n spierwit duif
TTITLE8=Dis lekke innie army
TTITLE9=Boy van die suburbs
TTITLE10=Klein Karoo
TTITLE11=Staan net n bietjie stil
TTITLE12=Hey DJ
TTITLE13=Jy's die girl
TTITLE14=Kom bietjie hier
TTITLE15=Skud jou bum bum
TTITLE16=Elke dag elke nag
TTITLE17=Hou my vas, stywer vas
TTITLE18=Ek is vry
TTITLE19=Nikotien en kaffeien
EXTD=
EXTT0=
EXTT1=
EXTT2=
EXTT3=
EXTT4=
EXTT5=
EXTT6=
EXTT7=
EXTT8=
EXTT9=
EXTT10=
EXTT11=
EXTT12=
EXTT13=
EXTT14=
EXTT15=
EXTT16=
EXTT17=
EXTT18=
EXTT19=
PLAYORDER=
